<svg width="265" height="280" viewBox="0 0 265 280" fill="none" xmlns="http://www.w3.org/2000/svg">
    <path d="M136.25 55.486C95.19 55.486 61.785 88.891 61.785 129.951C61.785 146.775 67.296 162.662 77.723 175.89C79.721 178.426 81.873 180.923 83.953 183.338C90.165 190.546 96.031 197.355 98.119 205.013C98.164 205.178 98.557 206.786 98.499 212.26L98.489 213.051C98.426 217.495 98.342 223.579 102.841 228.142C105.922 231.267 110.24 232.787 116.045 232.787H156.317C162.585 232.787 167.091 231.253 170.093 228.098C174.154 223.831 173.882 218.319 173.701 214.671C173.669 214.026 173.635 213.375 173.627 212.727C173.562 207.247 173.972 205.702 173.989 205.637C176.11 197.98 182.982 189.905 189.046 182.782C191.069 180.405 192.98 178.16 194.76 175.903C205.191 162.673 210.704 146.783 210.704 129.952C210.705 88.892 177.305 55.486 136.25 55.486Z" fill="white"/>
    <path d="M154.766 239.564H117.725C109.73 239.564 103.225 246.069 103.225 254.064V265.181C103.225 273.176 109.73 279.681 117.725 279.681H154.766C162.761 279.681 169.266 273.176 169.266 265.181V254.064C169.266 246.069 162.761 239.564 154.766 239.564Z" fill="white"/>
    <path d="M136.245 45.779C140.388 45.779 143.745 42.422 143.745 38.279V7.5C143.745 3.357 140.388 0 136.245 0C132.102 0 128.745 3.357 128.745 7.5V38.279C128.745 42.422 132.103 45.779 136.245 45.779Z" fill="white"/>
    <path d="M234.917 34.598C232.059 31.603 227.311 31.492 224.313 34.35L201.543 56.08C198.546 58.939 198.436 63.687 201.295 66.684C202.769 68.228 204.743 69.006 206.722 69.006C208.582 69.006 210.447 68.318 211.899 66.932L234.669 45.201C237.666 42.342 237.776 37.594 234.917 34.598Z" fill="white"/>
    <path d="M257.273 109.599C257.269 109.599 257.265 109.599 257.261 109.599L227.95 109.646C223.807 109.653 220.455 113.016 220.462 117.158C220.469 121.297 223.825 124.646 227.962 124.646C227.966 124.646 227.97 124.646 227.974 124.646L257.285 124.599C261.428 124.592 264.78 121.229 264.773 117.087C264.767 112.948 261.41 109.599 257.273 109.599Z" fill="white"/>
    <path d="M67.386 64.684C70.245 61.688 70.135 56.941 67.138 54.08L44.368 32.35C41.374 29.492 36.626 29.601 33.764 32.598C30.905 35.594 31.015 40.341 34.012 43.202L56.782 64.933C58.234 66.319 60.097 67.007 61.959 67.007C63.937 67.006 65.912 66.228 67.386 64.684Z" fill="white"/>
    <path d="M37.729 109.646L8.41899 109.599C8.41499 109.599 8.41099 109.599 8.40699 109.599C4.26999 109.599 0.913993 112.95 0.906993 117.087C0.899993 121.229 4.25299 124.592 8.39499 124.599L37.705 124.646C37.709 124.646 37.713 124.646 37.717 124.646C41.854 124.646 45.21 121.295 45.217 117.158C45.225 113.016 41.872 109.652 37.729 109.646Z" fill="white"/>
</svg>
