<?xml version="1.0" encoding="iso-8859-1"?>
<svg version="1.1" id="Layer_1" xmlns="http://www.w3.org/2000/svg" xmlns:xlink="http://www.w3.org/1999/xlink" x="0px" y="0px"
	 viewBox="0 0 24 24" enable-background="new 0 0 24 24" xml:space="preserve">
<path fill="#ffffff" d="M5.3823056,14.999094c-1.9599612,0-3.3823242,1.472168-3.3823242,3.5
	c0,2.159668-1.8798828,4.6733398-1.8989258,4.6982422c-0.112793,0.1494141-0.1328125,0.3491211-0.0517578,0.5175781
	c0.0805664,0.1689453,0.2485352,0.2783203,0.4355469,0.2841797c0.0048828,0,0.0917969,0.0009766,0.0966797,0.0009766
	c0.3510742,0,1.6455077-0.0332031,3.5712891-0.4555664c2.6728516-0.5864258,4.8471675-2.7998047,4.8471675-4.9335938
	C8.9999809,16.6192112,7.3769345,14.999094,5.3823056,14.999094z M23.8534966,0.1465551
	c-0.1748047-0.175293-0.4506836-0.1953125-0.6494141-0.0498047C23.1044731,0.1699926,13.1611137,7.4771214,7.2392392,13.0850315
	c-0.1225586,0.1162109-0.1782227,0.2851562-0.1484375,0.4511719s0.140625,0.3056641,0.2958984,0.3720703
	c1.2050776,0.5146484,2.1914058,1.5009766,2.7055659,2.7050781c0.0664062,0.1552734,0.2060547,0.2666016,0.371582,0.2958984
	c0.0297852,0.0048828,0.059082,0.0078125,0.0883789,0.0078125c0.1362305,0,0.2675781-0.0556641,0.3632812-0.15625
	c5.6079102-5.9223633,12.9145508-15.8652344,12.987793-15.9648438C24.0492973,0.5967504,24.027813,0.3208715,23.8534966,0.1465551z"
	/>
</svg>
