<?xml version="1.0" encoding="iso-8859-1"?>
<svg version="1.1" id="Layer_1" xmlns="http://www.w3.org/2000/svg" xmlns:xlink="http://www.w3.org/1999/xlink" x="0px" y="0px"
	 viewBox="0 0 24 24" enable-background="new 0 0 24 24" xml:space="preserve">
<path fill="#ffffff" d="M2.5,4h-2C0.2236328,4,0,4.2236328,0,4.5v1C0,5.7763672,0.2236328,6,0.5,6h2C2.7763672,6,3,5.7763672,3,5.5
	v-1C3,4.2236328,2.7763672,4,2.5,4z M16.5,18H6V0.5C6,0.2236328,5.7763672,0,5.5,0h-1C4.2236328,0,4,0.2236328,4,0.5v19
	C4,19.7763672,4.2236328,20,4.5,20h12c0.2763672,0,0.5-0.2236328,0.5-0.5v-1C17,18.2236328,16.7763672,18,16.5,18z M19.5,4h-12
	C7.2236328,4,7,4.2236328,7,4.5v1C7,5.7763672,7.2236328,6,7.5,6H18v17.5c0,0.2763672,0.2236328,0.5,0.5,0.5h1
	c0.2763672,0,0.5-0.2236328,0.5-0.5v-19C20,4.2236328,19.7763672,4,19.5,4z M23.5,18h-2c-0.2763672,0-0.5,0.2236328-0.5,0.5v1
	c0,0.2763672,0.2236328,0.5,0.5,0.5h2c0.2763672,0,0.5-0.2236328,0.5-0.5v-1C24,18.2236328,23.7763672,18,23.5,18z"/>
</svg>
