<svg width="196" height="190" viewBox="0 0 196 190" fill="none" xmlns="http://www.w3.org/2000/svg">
<path fill-rule="evenodd" clip-rule="evenodd" d="M107.894 29.145L154.131 18.736L159.828 21.694C164.505 24.324 168.85 27.245 172.867 30.46C185.723 40.759 193.027 52.191 194.78 64.754C196.533 77.317 194.414 90.174 188.425 103.322C185.504 109.896 182.362 115.192 179.003 119.209L113.043 141.341L118.85 135.863C123.524 131.189 127.798 126.331 131.67 121.291C143.867 105.294 149.492 90.5749 148.543 77.1349C147.592 63.6959 140.545 51.679 127.397 41.088C123.305 37.728 118.813 34.733 113.92 32.103L107.894 29.145Z" fill="#3B3B3B"/>
<path fill-rule="evenodd" clip-rule="evenodd" d="M183.604 40.869L186.232 44.375C181.849 46.858 176.371 49.014 169.797 50.839C162.787 52.811 156.87 53.723 152.047 53.578C151.828 54.527 151.427 55.807 150.842 57.413C149.891 55.732 148.429 53.87 146.459 51.825C144.634 49.925 143.135 48.648 141.967 47.99L143.062 45.799C142.475 45.727 141.491 45.762 140.102 45.909C143.755 44.156 149.452 41.855 157.194 39.006C165.23 36.01 171.037 33.674 174.616 31.994C175.858 32.943 177.21 34.148 178.672 35.609L183.604 40.869Z" fill="#454545"/>
<path fill-rule="evenodd" clip-rule="evenodd" d="M154.131 18.736L161.253 22.461C166.95 25.821 172.063 29.546 176.592 33.637C173.89 35.024 167.132 37.29 156.322 40.43C147.263 42.988 141.568 45.433 139.23 47.771C137.111 46.31 134.518 45.289 131.448 44.703C126.847 40.393 121.55 36.4859 115.561 32.9799L107.891 29.145L154.131 18.736Z" fill="#454545"/>
<path fill-rule="evenodd" clip-rule="evenodd" d="M123.233 31.227L116.659 27.392L154.131 18.736L160.924 22.681C150.697 24.944 143.431 26.478 139.12 27.282C136.42 27.721 132.949 28.523 128.711 29.693L123.233 31.227Z" fill="#363636"/>
<path fill-rule="evenodd" clip-rule="evenodd" d="M150.844 33.8559C156.98 31.8099 163.262 29.9119 169.689 28.1589C169.836 28.2309 170.531 28.5249 171.771 29.0349C173.158 29.7649 174.291 30.9349 175.168 32.5419C175.897 33.8559 176.373 34.8049 176.592 35.3899C176.737 35.6089 177.907 36.6679 180.098 38.5679C177.615 39.9549 175.972 40.7589 175.168 40.9779C173.198 41.7079 171.006 41.8169 168.594 41.3069C168.009 42.7689 165.125 44.2649 159.938 45.7989C154.898 47.3329 151.576 47.8459 149.967 47.3329C149.967 47.9899 149.054 48.4289 147.228 48.6479C145.475 48.8669 144.561 49.2329 144.489 49.7439C142.225 46.6009 139.193 43.8989 135.397 41.6359L135.176 40.8689H134.19C135.285 39.4069 140.836 37.0709 150.844 33.8559Z" fill="#575757"/>
<path fill-rule="evenodd" clip-rule="evenodd" d="M172.429 31.9937L177.359 34.7328L135.724 48.4287L133.532 44.5939L172.429 31.9937Z" fill="#707070"/>
<path fill-rule="evenodd" clip-rule="evenodd" d="M148.543 77.135C148.471 75.965 148.032 75.089 147.226 74.506C146.352 73.776 145.764 72.972 145.473 72.095C150.222 71.876 156.796 70.27 165.195 67.274C175.128 63.696 181.667 61.577 184.807 60.919C186.269 60.628 188.022 60.227 190.064 59.714C191.671 59.423 192.876 59.348 193.68 59.495L194.776 64.754C196.529 77.317 194.41 90.174 188.421 103.322C185.5 109.896 182.358 115.192 178.998 119.209L114.573 140.903L115.23 139.369C123.119 132.138 129.912 124.286 135.61 115.812C145.037 101.86 149.347 88.969 148.543 77.135Z" fill="#262626"/>
<path fill-rule="evenodd" clip-rule="evenodd" d="M148.543 77.1349C148.322 74.2139 147.739 71.109 146.788 67.822C150.368 66.726 152.45 66.141 153.035 66.069C160.267 65.339 166.985 63.84 173.196 61.577C173.559 61.504 179.73 58.982 191.71 54.017C193.244 57.742 194.267 61.32 194.778 64.754L194.997 67.384C194.997 67.894 194.888 68.37 194.671 68.808C194.013 70.855 192.734 72.277 190.836 73.081C188.351 73.739 186.271 74.359 184.588 74.944C181.157 76.184 178.634 77.098 177.03 77.683C174.107 78.779 171.552 79.618 169.361 80.203C165.342 81.007 162.199 81.7 159.936 82.285C155.7 83.308 152.704 84.5509 150.951 86.0099C150.147 85.2059 149.345 84.2569 148.541 83.1609C148.69 81.1889 148.69 79.1799 148.543 77.1349Z" fill="#2E2E2E"/>
<path fill-rule="evenodd" clip-rule="evenodd" d="M149.529 87.435L150.953 86.01C151.335 86.455 151.571 86.674 151.666 86.668L149.529 87.435Z" fill="#2E2E2E"/>
<path fill-rule="evenodd" clip-rule="evenodd" d="M155.555 103.76C159.208 101.496 164.941 99.268 172.759 97.077C176.191 96.055 182.802 94.375 192.591 92.036C190.691 98.83 187.842 105.404 184.045 111.758L179.005 119.209L118.524 139.479L121.809 138.054C122.904 135.425 126.264 132.138 131.889 128.193C138.171 123.811 142.153 120.451 143.832 118.113C145.438 115.994 147.263 113.255 149.31 109.896C151.135 107.266 153.217 105.222 155.555 103.76Z" fill="#1C1C1C"/>
<path fill-rule="evenodd" clip-rule="evenodd" d="M151.501 85.243C151.646 100.802 147.338 114.096 138.572 125.126C129.807 136.227 119.216 141.817 106.798 141.889C94.3071 142.036 83.6071 136.63 74.6951 125.673C65.7831 114.717 61.2531 101.459 61.1091 85.901C61.0361 70.342 65.3471 57.01 74.0371 45.909C82.8031 34.878 93.4311 29.292 105.921 29.145C118.412 29.073 129.112 34.479 138.022 45.361C146.937 56.318 151.429 69.612 151.501 85.243Z" fill="#141414"/>
<path fill-rule="evenodd" clip-rule="evenodd" d="M151.501 89.845C151.646 104.161 147.375 116.397 138.682 126.55C129.989 136.702 119.433 141.817 107.017 141.889C94.599 142.036 83.971 137.068 75.133 126.988C66.295 116.98 61.803 104.819 61.656 90.502C61.584 76.186 65.8941 63.95 74.5851 53.798C83.2781 43.717 93.834 38.605 106.25 38.458C118.668 38.386 129.296 43.351 138.134 53.359C146.974 63.367 151.429 75.529 151.501 89.845Z" fill="#1F1F1F"/>
<path fill-rule="evenodd" clip-rule="evenodd" d="M151.611 92.694C151.683 103.212 147.375 112.234 138.684 119.757C129.919 127.282 119.326 131.079 106.91 131.152C94.566 131.296 83.975 127.646 75.135 120.195C66.298 112.817 61.805 103.87 61.659 93.351C61.586 82.833 65.932 73.848 74.697 66.398C83.39 58.947 93.944 55.15 106.362 55.003C118.78 54.93 129.408 58.546 138.246 65.85C147.081 73.228 151.539 82.175 151.611 92.694Z" fill="#2E2E2E"/>
<path fill-rule="evenodd" clip-rule="evenodd" d="M139.449 85.572C139.594 97.552 136.271 107.814 129.478 116.36C122.611 124.906 114.321 129.217 104.607 129.289C94.892 129.361 86.6 125.198 79.735 116.798C72.795 108.325 69.289 98.1 69.216 86.12C69.144 74.067 72.503 63.768 79.297 55.222C86.017 46.748 94.27 42.44 104.059 42.293C113.773 42.221 122.063 46.419 128.93 54.893C135.87 63.367 139.377 73.592 139.449 85.572Z" fill="#404040"/>
<path fill-rule="evenodd" clip-rule="evenodd" d="M139.449 84.1479C139.594 95.8339 136.344 105.805 129.697 114.059C123.051 122.314 115.015 126.478 105.593 126.55C96.098 126.622 87.99 122.568 81.269 114.388C74.548 106.208 71.1139 96.3099 70.9699 84.6949C70.8969 73.0809 74.1839 63.1109 80.8309 54.7839C87.4769 46.5289 95.5129 42.3649 104.935 42.2929C114.358 42.2209 122.429 46.2749 129.15 54.4549C135.943 62.6349 139.377 72.5329 139.449 84.1479Z" fill="#141414"/>
<path fill-rule="evenodd" clip-rule="evenodd" d="M139.449 82.285C139.521 93.388 136.528 102.884 130.464 110.772C124.326 118.661 116.913 122.643 108.222 122.715C99.5309 122.787 92.1159 118.917 85.9799 111.101C79.7719 103.285 76.6299 93.827 76.5569 82.723C76.4849 71.62 79.4789 62.125 85.5419 54.236C91.6049 46.347 98.9809 42.365 107.674 42.293C116.368 42.221 123.818 46.091 130.026 53.907C136.234 61.724 139.377 71.181 139.449 82.285Z" fill="black"/>
<path fill-rule="evenodd" clip-rule="evenodd" d="M134.299 39.225C143.356 51.935 147.883 67.237 147.883 85.134C147.883 103.03 143.356 118.332 134.299 131.042C125.168 143.68 114.174 149.997 101.32 149.997C88.391 149.997 77.397 143.68 68.34 131.042C59.209 118.332 54.644 103.03 54.644 85.134C54.644 67.237 59.209 51.935 68.34 39.225C77.399 26.588 88.391 20.27 101.32 20.27C114.176 20.27 125.168 26.588 134.299 39.225Z" fill="url(#paint0_radial_911_130)"/>
<path fill-rule="evenodd" clip-rule="evenodd" d="M139.449 80.641C139.521 91.307 136.672 100.438 130.903 108.033C125.133 115.63 118.121 119.465 109.866 119.538C101.686 119.612 94.636 115.885 88.719 108.362C82.875 100.837 79.88 91.745 79.735 81.08C79.663 70.414 82.511 61.32 88.281 53.798C94.051 46.202 101.063 42.368 109.318 42.293C117.498 42.221 124.548 45.946 130.464 53.469C136.381 60.919 139.377 69.976 139.449 80.641Z" fill="white"/>
<path fill-rule="evenodd" clip-rule="evenodd" d="M139.449 80.641C139.521 91.307 136.672 100.438 130.903 108.033C125.133 115.63 118.121 119.465 109.866 119.538C101.686 119.612 94.636 115.885 88.719 108.362C82.875 100.837 79.88 91.745 79.735 81.08C79.663 70.414 82.511 61.32 88.281 53.798C94.051 46.202 101.063 42.368 109.318 42.293C117.498 42.221 124.548 45.946 130.464 53.469C136.381 60.919 139.377 69.976 139.449 80.641Z" fill="url(#paint1_radial_911_130)"/>
<path fill-rule="evenodd" clip-rule="evenodd" d="M55.9591 35.39L68.2301 139.041L151.063 142.656L142.955 37.91L55.9591 35.39ZM146.68 32.322L155.884 150.874L61.5471 146.929L47.6321 29.474L146.68 32.322Z" fill="#363636"/>
<path fill-rule="evenodd" clip-rule="evenodd" d="M55.9591 35.39L68.2301 139.041L151.063 142.656L142.955 37.91L55.9591 35.39ZM146.68 32.322L155.884 150.874L61.5471 146.929L47.6321 29.474L146.68 32.322Z" fill="#363636"/>
<path fill-rule="evenodd" clip-rule="evenodd" d="M65.9294 142.328L53.1101 36.5955L55.9588 35.3903L70.3121 141.122L65.9294 142.328Z" fill="#080808"/>
<path fill-rule="evenodd" clip-rule="evenodd" d="M155.884 150.874L146.68 32.3224L150.077 32.6511L159.719 148.683L155.884 150.874Z" fill="#141414"/>
<path fill-rule="evenodd" clip-rule="evenodd" d="M50.371 28.4875L150.077 32.6511L147.338 34.2946L47.084 30.6789L50.371 28.4875Z" fill="#707070"/>
<path fill-rule="evenodd" clip-rule="evenodd" d="M151.501 146.053L65.9294 142.328L68.6686 140.027L151.063 142.656L151.501 146.053Z" fill="#141414"/>
<path fill-rule="evenodd" clip-rule="evenodd" d="M55.411 131.809L8.07808 137.068L0.298828 54.6741L46.7552 51.3871L55.411 131.809Z" fill="#242424"/>
<path fill-rule="evenodd" clip-rule="evenodd" d="M13.4471 55.879L17.063 96.419C17.867 107.376 19.401 120.342 21.664 135.315L8.07803 137.068L0.847046 56.537L13.4471 55.879Z" fill="#2B2B2B"/>
<path fill-rule="evenodd" clip-rule="evenodd" d="M1.3945 52.7019L42.4821 49.634L46.7552 51.3871L0.298828 54.6741L1.3945 52.7019Z" fill="#707070"/>
<path fill-rule="evenodd" clip-rule="evenodd" d="M30.978 54.674L46.8651 52.921L55.411 131.809L38.099 134.11C38.391 119.5 38.137 106.171 37.332 94.118C36.822 86.593 35.617 77.755 33.717 67.603L30.978 54.674Z" fill="#1A1A1A"/>
<path fill-rule="evenodd" clip-rule="evenodd" d="M129.807 33.3085L67.6825 31.9937L39.1951 3.28711L106.469 6.02628L129.807 33.3085Z" fill="#1C1C1C"/>
<path fill-rule="evenodd" clip-rule="evenodd" d="M118.741 21.366L129.807 33.309L64.615 30.569L53.439 19.613L65.82 22.242C75.024 24.068 82.183 24.944 87.295 24.872C95.403 24.8 105.886 23.629 118.741 21.366Z" fill="#0A0A0A"/>
<path fill-rule="evenodd" clip-rule="evenodd" d="M106.469 6.02631L39.1951 3.28713L39.962 0.00012207L108.77 3.28713L106.469 6.02631Z" fill="#707070"/>
<path fill-rule="evenodd" clip-rule="evenodd" d="M108.77 3.28711L132.108 30.0215L129.807 33.3085L106.469 6.02628L108.77 3.28711Z" fill="#141414"/>
<path fill-rule="evenodd" clip-rule="evenodd" d="M139.12 152.189L104.826 185.826L36.2368 179.8L74.5853 148.354L139.12 152.189Z" fill="#454545"/>
<path fill-rule="evenodd" clip-rule="evenodd" d="M104.826 185.826V189.113L37.4421 183.525L36.2368 179.8L104.826 185.826Z" fill="#262626"/>
<path fill-rule="evenodd" clip-rule="evenodd" d="M36.2371 179.799L47.1941 170.925L57.7121 171.691C66.3301 172.351 74.5131 173.081 82.2551 173.883C94.6731 175.272 105.994 175.382 116.221 174.212L103.73 184.73L36.2371 179.799Z" fill="#4F4F4F"/>
<path fill-rule="evenodd" clip-rule="evenodd" d="M37.8803 178.047L105.921 183.634L103.73 184.73L36.2368 179.8L37.8803 178.047Z" fill="#7D7D7D"/>
<path fill-rule="evenodd" clip-rule="evenodd" d="M62.423 158.763L74.585 148.354L139.12 152.189L127.616 163.145C118.487 160.297 108.441 158.543 97.485 157.886C90.619 157.52 82.73 157.557 73.818 157.996L62.423 158.763Z" fill="#3D3D3D"/>
<path fill-rule="evenodd" clip-rule="evenodd" d="M139.12 152.189L138.901 157.667L104.826 189.113L104.059 185.278L139.12 152.189Z" fill="#141414"/>
<path fill-rule="evenodd" clip-rule="evenodd" d="M84.008 144.848L96.7177 145.286L90.6916 151.422L79.7349 150.436L84.008 144.848Z" fill="#262626"/>
<path fill-rule="evenodd" clip-rule="evenodd" d="M119.179 146.82L131.779 147.258L125.753 153.284L114.796 152.298L119.179 146.82Z" fill="#262626"/>
<path fill-rule="evenodd" clip-rule="evenodd" d="M96.7178 145.286L97.8134 149.669L92.3351 149.23L96.7178 145.286Z" fill="#141414"/>
<path fill-rule="evenodd" clip-rule="evenodd" d="M131.779 147.258L132.875 152.189L127.944 151.093L131.779 147.258Z" fill="#141414"/>
<path fill-rule="evenodd" clip-rule="evenodd" d="M45.0021 76.4779L44.1256 60.7003L57.2737 59.6046L58.3693 74.3962L45.0021 76.4779Z" fill="#141414"/>
<path fill-rule="evenodd" clip-rule="evenodd" d="M48.9467 123.92L48.1797 108.143L61.3277 107.047L63.0808 121.51L48.9467 123.92Z" fill="#141414"/>
<path fill-rule="evenodd" clip-rule="evenodd" d="M57.712 59.6046L47.3031 60.8099L47.8509 58.6185L51.1379 58.0707L57.712 59.6046Z" fill="#595959"/>
<path fill-rule="evenodd" clip-rule="evenodd" d="M53.1101 108.362L52.5623 104.527H57.4928L61.3276 107.047L53.1101 108.362Z" fill="#595959"/>
<path fill-rule="evenodd" clip-rule="evenodd" d="M164.43 97.953L166.402 97.186L170.456 101.678L167.498 101.788L164.43 97.953Z" fill="#292929"/>
<path fill-rule="evenodd" clip-rule="evenodd" d="M164.211 86.996C164.283 86.63 164.432 86.229 164.649 85.791C165.088 84.842 165.745 84.075 166.622 83.49C168.081 82.539 170.09 81.956 172.648 81.737L169.142 84.038C168.556 84.329 167.974 84.915 167.389 85.791L166.622 86.996H164.211Z" fill="#292929"/>
<path fill-rule="evenodd" clip-rule="evenodd" d="M147.338 34.295L148.872 53.907L144.16 53.578L142.955 37.91L54.0961 35.281L54.3151 47.552C53.2201 47.186 52.4151 47.004 51.9051 47.004L49.7141 47.333L47.6321 29.474L147.338 34.295Z" fill="#2E2E2E"/>
<path fill-rule="evenodd" clip-rule="evenodd" d="M61.5468 146.93L59.7937 131.919H64.5051L65.1625 142.766L150.515 145.943L150.186 134.22L155.117 134.11L155.884 150.874L61.5468 146.93Z" fill="#2E2E2E"/>
<path fill-rule="evenodd" clip-rule="evenodd" d="M61.218 142.656L80.502 144.628C94.892 145.943 105.884 146.638 113.482 146.71C125.753 146.929 139.924 146.563 155.994 145.615L156.215 151.093L61.549 146.929L61.218 142.656Z" fill="#262626"/>
<path fill-rule="evenodd" clip-rule="evenodd" d="M148.324 34.952L148.545 39.335C122.979 36.267 105.376 34.441 95.7321 33.856C89.6681 33.565 79.9541 33.565 66.5871 33.856L48.2891 34.404L47.6321 29.474L148.324 34.952Z" fill="#262626"/>
<path fill-rule="evenodd" clip-rule="evenodd" d="M65.8199 143.204L65.9295 142.328L150.515 145.943V147.039L65.8199 143.204Z" fill="#575757"/>
<path fill-rule="evenodd" clip-rule="evenodd" d="M150.515 145.943L65.9294 142.328L71.0791 139.041L149.967 143.204L150.515 145.943Z" fill="#1C1C1C"/>
<path fill-rule="evenodd" clip-rule="evenodd" d="M144.051 55.1123L150.296 134.22L130.684 137.397L122.247 55.7697L144.051 55.1123Z" fill="#1F1F1F"/>
<path fill-rule="evenodd" clip-rule="evenodd" d="M129.807 59.605L133.971 100.144C134.775 109.276 136.125 121.328 138.025 136.301L130.684 137.397L122.137 59.714L129.807 59.605Z" fill="#262626"/>
<path fill-rule="evenodd" clip-rule="evenodd" d="M142.298 95.981C141.713 86.63 140.472 77.392 138.572 68.26C136.892 60.372 135.651 56.208 134.849 55.77L144.051 55.112L150.189 134.22L141.969 134.987C142.405 130.97 142.661 125.601 142.736 118.88C142.881 110.7 142.736 103.065 142.298 95.981Z" fill="#141414"/>
<path fill-rule="evenodd" clip-rule="evenodd" d="M124.329 58.0706L116.659 56.4271L141.312 54.0167L144.051 55.1123L124.329 58.0706Z" fill="#707070"/>
<path fill-rule="evenodd" clip-rule="evenodd" d="M130.684 137.397L125.972 137.945L117.755 56.975H122.685L130.684 137.397Z" fill="#575757"/>
<path fill-rule="evenodd" clip-rule="evenodd" d="M148.433 64.2064L149.31 78.6693L143.065 81.0797L142.626 65.3021L148.433 64.2064Z" fill="#141414"/>
<path fill-rule="evenodd" clip-rule="evenodd" d="M152.597 109.129L153.474 123.592L147.228 126.002L146.79 110.115L152.597 109.129Z" fill="#141414"/>
<path fill-rule="evenodd" clip-rule="evenodd" d="M143.393 63.549L148.653 64.4255L143.722 66.6168L143.393 63.549Z" fill="#4F4F4F"/>
<path fill-rule="evenodd" clip-rule="evenodd" d="M148.433 107.704L153.364 109.348L147.886 111.539L148.433 107.704Z" fill="#4F4F4F"/>
<defs>
<radialGradient id="paint0_radial_911_130" cx="0" cy="0" r="1" gradientUnits="userSpaceOnUse" gradientTransform="translate(101.264 85.1415) rotate(176.29) scale(47.8254 65.2008)">
<stop offset="0.0588" stop-color="#FFEEBA" stop-opacity="0.6471"/>
<stop offset="1" stop-color="#FFE4BA" stop-opacity="0"/>
</radialGradient>
<radialGradient id="paint1_radial_911_130" cx="0" cy="0" r="1" gradientUnits="userSpaceOnUse" gradientTransform="translate(107.573 83.8282) rotate(-1.26054) scale(40.5515 51.6163)">
<stop offset="0.1569" stop-color="#E3BB92" stop-opacity="0"/>
<stop offset="0.349" stop-color="#D4AC83" stop-opacity="0.1725"/>
<stop offset="0.6588" stop-color="#B38C62" stop-opacity="0.549"/>
<stop offset="0.6824" stop-color="#A9835B" stop-opacity="0.6275"/>
<stop offset="0.7529" stop-color="#92704C" stop-opacity="0.8039"/>
<stop offset="0.8157" stop-color="#856543" stop-opacity="0.9098"/>
<stop offset="0.8745" stop-color="#806140" stop-opacity="0.949"/>
</radialGradient>
</defs>
</svg>
