<?xml version="1.0" encoding="utf-8"?>
<svg width="92" height="92" viewBox="0 0 92 92" fill="none" xmlns="http://www.w3.org/2000/svg">
<path d="M88 68.4H27.6C25.4 68.4 23.6 66.6 23.6 64.4V4C23.6 1.8 25.4 0 27.6 0H88C90.2 0 92 1.8 92 4V64.3C92 66.6 90.2 68.4 88 68.4ZM31.6 60.3H83.9V8.1H31.6V60.3ZM66.4 87.2V76.6C66.4 74.9 65 73.6 63.4 73.6C61.8 73.6 60.4 75 60.4 76.6V86H6.1V31.7H15.4C17.1 31.7 18.4 30.3 18.4 28.7C18.4 27.1 17 25.7 15.4 25.7H4.8C2.2 25.7 0 27.8 0 30.5V87.4C0 89.9 2.1 92 4.8 92H61.7C64.3 92 66.4 89.9 66.4 87.2Z" fill="white"/>
</svg>
