<?xml version="1.0" encoding="UTF-8" standalone="no"?>
<!-- Created with Inkscape (http://www.inkscape.org/) -->

<svg
        xmlns:dc="http://purl.org/dc/elements/1.1/"
        xmlns:cc="http://creativecommons.org/ns#"
        xmlns:rdf="http://www.w3.org/1999/02/22-rdf-syntax-ns#"
        xmlns="http://www.w3.org/2000/svg"
        xmlns:sodipodi="http://sodipodi.sourceforge.net/DTD/sodipodi-0.dtd"
        xmlns:inkscape="http://www.inkscape.org/namespaces/inkscape"
        width="142.10733mm"
        height="139.59955mm"
        viewBox="0 0 503.52991 494.64407"
        id="svg2"
        version="1.1"
        inkscape:version="0.91 r13725"
        sodipodi:docname="decreasespeed.svg">
  <defs
     id="defs4" />
  <sodipodi:namedview
     id="base"
     pagecolor="#ffffff"
     bordercolor="#666666"
     borderopacity="1.0"
     inkscape:pageopacity="0.0"
     inkscape:pageshadow="2"
     inkscape:zoom="0.35"
     inkscape:cx="-114.66362"
     inkscape:cy="124.46494"
     inkscape:document-units="px"
     inkscape:current-layer="g4144"
     showgrid="false"
     fit-margin-top="0"
     fit-margin-left="0"
     fit-margin-right="0"
     fit-margin-bottom="0"
     inkscape:window-width="1280"
     inkscape:window-height="962"
     inkscape:window-x="-8"
     inkscape:window-y="-8"
     inkscape:window-maximized="1" />
  <metadata
     id="metadata7">
    <rdf:RDF>
      <cc:Work
         rdf:about="">
        <dc:format>image/svg+xml</dc:format>
        <dc:type
           rdf:resource="http://purl.org/dc/dcmitype/StillImage" />
        <dc:title></dc:title>
      </cc:Work>
    </rdf:RDF>
  </metadata>
  <g
     inkscape:label="Layer 1"
     inkscape:groupmode="layer"
     id="layer1"
     transform="translate(-62.52076,-162.18302)">
    <g
       id="g4144"
       transform="translate(58.285714,153.50506)">
      <g
         inkscape:label="Layer 2"
         id="layer2"
         transform="matrix(-0.99999975,7.1056535e-4,-7.1056535e-4,-0.99999975,512.18184,511.81804)">
        <ellipse
           ry="247.32204"
           rx="251.76495"
           cy="256"
           cx="256"
           id="path3361"
           style="fill:#383030;fill-opacity:1" />
      </g>
      <path
         inkscape:connector-curvature="0"
         style="color:#000000;clip-rule:nonzero;display:inline;overflow:visible;visibility:visible;opacity:1;isolation:auto;mix-blend-mode:normal;color-interpolation:sRGB;color-interpolation-filters:linearRGB;solid-color:#000000;solid-opacity:1;fill:#ffffff;fill-opacity:1;fill-rule:nonzero;stroke-width:1;stroke-linecap:butt;stroke-linejoin:miter;stroke-miterlimit:4;stroke-dasharray:none;stroke-dashoffset:0;stroke-opacity:1;color-rendering:auto;image-rendering:auto;shape-rendering:auto;text-rendering:auto;enable-background:accumulate"
         id="path3347"
         d="m 263.22974,271.76374 108.09731,113.03579 c 1.32014,1.36434 2.67869,2.18253 4.23066,2.18143 4.22911,-0.003 7.67787,-6.14917 7.67254,-13.65816 l 0.0388,-2e-5 -0.16686,-234.82628 -0.0388,2e-5 c -0.005,-7.50899 -3.46283,-13.65024 -7.69194,-13.64724 -1.59077,0.001 -2.90926,0.95776 -4.34386,2.32405 L 263.20733,240.22602 c -2.55807,3.75631 -4.18361,9.42334 -4.1791,15.77184 0.005,6.3485 1.63806,11.94495 4.20151,15.76588 z" />
      <g
         inkscape:label="Layer 1"
         id="layer1-9" />
    </g>
    <path
       inkscape:connector-curvature="0"
       style="color:#000000;clip-rule:nonzero;display:inline;overflow:visible;visibility:visible;opacity:1;isolation:auto;mix-blend-mode:normal;color-interpolation:sRGB;color-interpolation-filters:linearRGB;solid-color:#000000;solid-opacity:1;fill:#ffffff;fill-opacity:1;fill-rule:nonzero;stroke-width:1;stroke-linecap:butt;stroke-linejoin:miter;stroke-miterlimit:4;stroke-dasharray:none;stroke-dashoffset:0;stroke-opacity:1;color-rendering:auto;image-rendering:auto;shape-rendering:auto;text-rendering:auto;enable-background:accumulate"
       id="path3347-5"
       d="m 149.12081,422.53415 108.09731,113.0358 c 1.32014,1.36433 2.67869,2.18253 4.23066,2.18143 4.22911,-0.003 7.67787,-6.14917 7.67254,-13.65816 l 0.0388,-3e-5 -0.16686,-234.82628 -0.0388,3e-5 c -0.005,-7.50899 -3.46283,-13.65024 -7.69194,-13.64724 -1.59077,0.001 -2.90926,0.95776 -4.34386,2.32405 L 149.0984,390.99644 c -2.55807,3.75631 -4.18361,9.42334 -4.1791,15.77183 0.005,6.3485 1.63806,11.94495 4.20151,15.76588 z" />
  </g>
</svg>
