<?xml version="1.0" encoding="UTF-8" standalone="no"?>
<!-- Created with Inkscape (http://www.inkscape.org/) -->

<svg
        xmlns:dc="http://purl.org/dc/elements/1.1/"
        xmlns:cc="http://creativecommons.org/ns#"
        xmlns:rdf="http://www.w3.org/1999/02/22-rdf-syntax-ns#"
        xmlns="http://www.w3.org/2000/svg"
        xmlns:sodipodi="http://sodipodi.sourceforge.net/DTD/sodipodi-0.dtd"
        xmlns:inkscape="http://www.inkscape.org/namespaces/inkscape"
        width="142.10733mm"
        height="139.59955mm"
        viewBox="0 0 503.52991 494.64407"
        id="svg2"
        version="1.1"
        inkscape:version="0.91 r13725"
        sodipodi:docname="increasespeed.svg">
  <defs
     id="defs4" />
  <sodipodi:namedview
     id="base"
     pagecolor="#ffffff"
     bordercolor="#666666"
     borderopacity="1.0"
     inkscape:pageopacity="0.0"
     inkscape:pageshadow="2"
     inkscape:zoom="0.35"
     inkscape:cx="-114.66362"
     inkscape:cy="124.46494"
     inkscape:document-units="px"
     inkscape:current-layer="layer1"
     showgrid="false"
     fit-margin-top="0"
     fit-margin-left="0"
     fit-margin-right="0"
     fit-margin-bottom="0"
     inkscape:window-width="1280"
     inkscape:window-height="962"
     inkscape:window-x="-8"
     inkscape:window-y="-8"
     inkscape:window-maximized="1" />
  <metadata
     id="metadata7">
    <rdf:RDF>
      <cc:Work
         rdf:about="">
        <dc:format>image/svg+xml</dc:format>
        <dc:type
           rdf:resource="http://purl.org/dc/dcmitype/StillImage" />
        <dc:title></dc:title>
      </cc:Work>
    </rdf:RDF>
  </metadata>
  <g
     inkscape:label="Layer 1"
     inkscape:groupmode="layer"
     id="layer1"
     transform="translate(-62.52076,-162.18302)">
    <g
       id="g4144"
       transform="translate(58.285714,153.50506)">
      <g
         inkscape:label="Layer 2"
         id="layer2">
        <ellipse
           ry="247.32204"
           rx="251.76495"
           cy="256"
           cx="256"
           id="path3361"
           style="fill:#383030;fill-opacity:1" />
      </g>
      <path
         inkscape:connector-curvature="0"
         style="color:#000000;clip-rule:nonzero;display:inline;overflow:visible;visibility:visible;opacity:1;isolation:auto;mix-blend-mode:normal;color-interpolation:sRGB;color-interpolation-filters:linearRGB;solid-color:#000000;solid-opacity:1;fill:#ffffff;fill-opacity:1;fill-rule:nonzero;stroke-width:1;stroke-linecap:butt;stroke-linejoin:miter;stroke-miterlimit:4;stroke-dasharray:none;stroke-dashoffset:0;stroke-opacity:1;color-rendering:auto;image-rendering:auto;shape-rendering:auto;text-rendering:auto;enable-background:accumulate"
         id="path3347"
         d="M 248.78146,240.23114 140.7645,127.11856 c -1.31917,-1.36527 -2.67714,-2.18443 -4.22911,-2.18443 -4.22911,0 -7.68224,6.14371 -7.68224,13.6527 l -0.0388,0 0,234.82634 0.0388,0 c 0,7.50899 3.45313,13.6527 7.68224,13.6527 1.59077,0 2.90994,-0.95569 4.34551,-2.32096 L 248.78146,271.76886 c 2.56074,-3.75449 4.19031,-9.42036 4.19031,-15.76886 0,-6.3485 -1.62957,-11.94611 -4.19031,-15.76886 z" />
      <g
         inkscape:label="Layer 1"
         id="layer1-9" />
    </g>
    <path
       inkscape:connector-curvature="0"
       style="color:#000000;clip-rule:nonzero;display:inline;overflow:visible;visibility:visible;opacity:1;isolation:auto;mix-blend-mode:normal;color-interpolation:sRGB;color-interpolation-filters:linearRGB;solid-color:#000000;solid-opacity:1;fill:#ffffff;fill-opacity:1;fill-rule:nonzero;stroke-width:1;stroke-linecap:butt;stroke-linejoin:miter;stroke-miterlimit:4;stroke-dasharray:none;stroke-dashoffset:0;stroke-opacity:1;color-rendering:auto;image-rendering:auto;shape-rendering:auto;text-rendering:auto;enable-background:accumulate"
       id="path3347-5"
       d="M 479.45983,396.59334 371.44287,283.48076 c -1.31917,-1.36527 -2.67714,-2.18443 -4.22911,-2.18443 -4.22911,0 -7.68224,6.14371 -7.68224,13.6527 l -0.0388,0 0,234.82634 0.0388,0 c 0,7.50899 3.45313,13.6527 7.68224,13.6527 1.59077,0 2.90994,-0.95569 4.34551,-2.32096 L 479.45983,428.13106 c 2.56074,-3.75449 4.19031,-9.42036 4.19031,-15.76886 0,-6.3485 -1.62957,-11.94611 -4.19031,-15.76886 z" />
  </g>
</svg>
